<svg width="24" height="26" fill="none" xmlns="http://www.w3.org/2000/svg"><path d="M12 8.047A4.96 4.96 0 007.046 13 4.96 4.96 0 0012 17.954 4.96 4.96 0 0016.954 13 4.96 4.96 0 0012 8.047zm2.941 4.02l-3.549 3.55a.76.76 0 01-1.079 0L8.957 14.26a.763.763 0 111.079-1.079l.817.817 3.01-3.01a.763.763 0 111.078 1.08z" fill="#03A678"/><path d="M23.044 7.054v-.02c-.012-.25-.02-.514-.024-.808a2.756 2.756 0 00-2.594-2.7c-2.99-.166-5.302-1.14-7.278-3.067L13.13.443a1.664 1.664 0 00-2.261 0l-.017.016c-1.976 1.926-4.289 2.9-7.278 3.068a2.755 2.755 0 00-2.595 2.7c-.004.291-.012.556-.023.807l-.001.047c-.058 3.048-.13 6.842 1.139 10.285.697 1.894 1.754 3.54 3.14 4.893 1.58 1.541 3.648 2.764 6.148 3.636a1.9 1.9 0 00.983.069 1.82 1.82 0 00.253-.07c2.497-.873 4.563-2.096 6.14-3.637 1.386-1.354 2.443-3 3.141-4.894 1.274-3.454 1.202-7.255 1.144-10.309zM12 19.48A6.487 6.487 0 015.52 13 6.487 6.487 0 0112 6.52 6.487 6.487 0 0118.48 13 6.487 6.487 0 0112 19.48z" fill="#03A678"/></svg>